<svg width="500" height="500" viewBox="0 0 500 500" fill="none" xmlns="http://www.w3.org/2000/svg">
<path d="M250 489.29C358.828 489.29 447.05 439.173 447.05 377.35C447.05 315.527 358.828 265.41 250 265.41C141.172 265.41 52.95 315.527 52.95 377.35C52.95 439.173 141.172 489.29 250 489.29Z" fill="#F5F5F5"/>
<path d="M332 447.93L184.91 363C183.616 362.255 182.541 361.181 181.794 359.888C181.047 358.595 180.653 357.129 180.653 355.635C180.653 354.142 181.047 352.675 181.794 351.382C182.541 350.089 183.616 349.016 184.91 348.27L199.42 339.12C201.925 337.678 204.765 336.918 207.655 336.918C210.545 336.918 213.385 337.678 215.89 339.12L363 424.06C364.294 424.806 365.369 425.879 366.116 427.172C366.863 428.465 367.257 429.932 367.257 431.425C367.257 432.918 366.863 434.385 366.116 435.678C365.369 436.971 364.294 438.045 363 438.79L348.49 447.93C345.984 449.38 343.14 450.144 340.245 450.144C337.35 450.144 334.506 449.38 332 447.93Z" fill="#E0E0E0"/>
<path d="M108.35 370.5C125.979 370.5 140.27 362.293 140.27 352.17C140.27 342.047 125.979 333.84 108.35 333.84C90.7211 333.84 76.43 342.047 76.43 352.17C76.43 362.293 90.7211 370.5 108.35 370.5Z" fill="#E6E6E6"/>
<path d="M384.16 374.7L398.16 382.75C398.16 382.75 391.01 360.28 394.82 337.63C396.26 329.07 399.35 324.82 400.43 322.53C401.51 320.24 409.88 306.09 402.43 299.61C394.98 293.13 377.65 306.16 378.59 341.03C379.017 352.444 380.889 363.757 384.16 374.7Z" fill="#F30000"/>
<path opacity="0.5" d="M384.16 374.7L398.16 382.75C398.16 382.75 391.01 360.28 394.82 337.63C396.26 329.07 399.35 324.82 400.43 322.53C401.51 320.24 409.88 306.09 402.43 299.61C394.98 293.13 377.65 306.16 378.59 341.03C379.017 352.444 380.889 363.757 384.16 374.7Z" fill="black"/>
<path d="M390.67 378.94C390.568 378.942 390.468 378.913 390.384 378.855C390.3 378.798 390.235 378.716 390.2 378.62C390.15 378.47 384.8 363.85 384.97 340.35C385.14 316.85 397.49 304.09 397.61 303.97C397.656 303.923 397.712 303.886 397.773 303.861C397.834 303.835 397.899 303.822 397.965 303.822C398.031 303.822 398.096 303.835 398.157 303.861C398.218 303.886 398.274 303.923 398.32 303.97C398.367 304.017 398.404 304.072 398.429 304.133C398.455 304.194 398.468 304.259 398.468 304.325C398.468 304.391 398.455 304.457 398.429 304.517C398.404 304.578 398.367 304.634 398.32 304.68C398.2 304.8 386.14 317.18 385.97 340.36C385.8 363.54 391.08 378.14 391.14 378.28C391.185 378.405 391.179 378.542 391.122 378.662C391.066 378.782 390.965 378.875 390.84 378.92C390.785 378.937 390.727 378.944 390.67 378.94Z" fill="white"/>
<path d="M390 378.14L409.14 389.14C411.134 390.319 413.5 390.703 415.764 390.215C418.029 389.728 420.027 388.405 421.36 386.51C422.627 384.539 423.161 382.185 422.87 379.86C421.95 369.92 417.63 367.63 422.92 363.2C428.21 358.77 429.59 358.46 429.29 354.2C428.99 349.94 426.08 348.08 424.7 346.4C423.32 344.72 419.5 341.2 422.1 336C424.7 330.8 428.25 325.77 422.87 323.47C419.66 322.09 414.31 323.93 410.79 327.75C407.27 331.57 404.37 334.32 401 335.24C397.63 336.16 390.61 336.31 390.91 342.12C391.21 347.93 392.75 349.92 391.37 352.51C388.77 357.35 377.46 360.1 390 378.14Z" fill="#F30000"/>
<path d="M399.46 384.06C399.335 384.056 399.216 384.007 399.124 383.923C399.033 383.838 398.974 383.724 398.96 383.6C398.96 383.26 396.02 348.94 419.62 326.1C419.717 326.02 419.841 325.979 419.967 325.986C420.093 325.994 420.212 326.049 420.299 326.14C420.387 326.231 420.436 326.351 420.438 326.478C420.44 326.604 420.394 326.726 420.31 326.82C397.05 349.33 399.93 383.17 399.96 383.51C399.971 383.641 399.93 383.771 399.846 383.872C399.762 383.973 399.641 384.037 399.51 384.05L399.46 384.06Z" fill="white"/>
<path d="M403.25 354.52C403.124 354.52 403.003 354.473 402.91 354.388C402.817 354.303 402.76 354.186 402.75 354.06C402.541 351.4 401.791 348.811 400.548 346.451C399.305 344.09 397.594 342.008 395.52 340.33C395.466 340.292 395.42 340.244 395.385 340.188C395.349 340.132 395.325 340.07 395.314 340.005C395.303 339.94 395.305 339.873 395.32 339.809C395.334 339.745 395.362 339.684 395.4 339.63C395.437 339.576 395.484 339.53 395.539 339.495C395.594 339.46 395.655 339.436 395.72 339.425C395.784 339.414 395.85 339.416 395.913 339.43C395.977 339.445 396.037 339.472 396.09 339.51C398.301 341.263 400.123 343.456 401.442 345.951C402.76 348.445 403.546 351.186 403.75 354C403.761 354.134 403.719 354.267 403.633 354.37C403.547 354.472 403.424 354.537 403.29 354.55L403.25 354.52Z" fill="white"/>
<path d="M401.62 360.41C401.499 360.411 401.382 360.369 401.29 360.29C401.191 360.202 401.13 360.078 401.121 359.945C401.111 359.813 401.154 359.682 401.24 359.58C401.48 359.3 407.39 352.78 421.24 354.51C421.371 354.528 421.49 354.596 421.571 354.701C421.651 354.806 421.687 354.939 421.67 355.07C421.653 355.202 421.584 355.322 421.48 355.404C421.375 355.486 421.242 355.524 421.11 355.51C407.81 353.84 402.04 360.18 401.98 360.24C401.934 360.291 401.879 360.332 401.817 360.362C401.755 360.391 401.688 360.407 401.62 360.41Z" fill="white"/>
<path d="M327.52 437.78L198.16 363.09C189.03 357.82 181.63 343.68 181.63 331.51V54.5099C181.63 42.3399 189.03 36.7499 198.16 42.0199L327.52 116.71C336.65 121.98 344.05 136.12 344.05 148.29V425.29C344.05 437.45 336.65 443.05 327.52 437.78Z" fill="#455A64"/>
<path d="M342.42 108L213.05 33.31C209.15 31.06 205.57 30.8 202.74 32.18C202.394 32.3535 202.059 32.5506 201.74 32.77L187.24 41.2C190.16 39.45 193.98 39.58 198.17 42L327.53 116.69C336.66 121.96 344.06 136.1 344.06 148.27V425.27C344.06 431.71 341.99 436.27 338.69 438.43L353 430.1C356.65 428.16 359 423.41 359 416.6V139.6C359 127.41 351.55 113.27 342.42 108Z" fill="#37474F"/>
<path d="M344.05 148.27V425.27C344.05 431.71 341.98 436.27 338.68 438.43L353 430.1C356.65 428.16 359 423.41 359 416.6V139.6L344.1 148.25L344.05 148.27Z" fill="#263238"/>
<path d="M358.95 161.09L344.05 169.69V176.41L358.95 167.8V161.09Z" fill="#37474F"/>
<path d="M352.42 205.78C351.09 206.55 350.01 205.73 350.01 203.96V189.51C350.024 188.607 350.249 187.719 350.667 186.918C351.086 186.118 351.686 185.427 352.42 184.9C353.75 184.13 354.83 184.9 354.83 186.72V201.17C354.816 202.073 354.591 202.961 354.173 203.761C353.754 204.562 353.154 205.253 352.42 205.78Z" fill="#37474F"/>
<path d="M350 204V189.51C350.014 188.607 350.239 187.719 350.657 186.918C351.076 186.118 351.676 185.426 352.41 184.9C352.629 184.746 352.885 184.653 353.151 184.628C353.418 184.604 353.686 184.649 353.93 184.76L352.12 183.83C351.872 183.711 351.598 183.659 351.324 183.68C351.05 183.701 350.786 183.794 350.56 183.95C349.825 184.477 349.224 185.168 348.804 185.968C348.383 186.768 348.156 187.656 348.14 188.56V203C348.103 203.365 348.158 203.733 348.301 204.07C348.445 204.408 348.671 204.704 348.96 204.93L350.85 205.93C350.549 205.713 350.312 205.42 350.162 205.081C350.013 204.741 349.957 204.368 350 204Z" fill="#455A64"/>
<path d="M352.42 240.75C351.09 241.52 350.01 240.75 350.01 238.93V224.48C350.024 223.577 350.25 222.69 350.668 221.889C351.087 221.089 351.687 220.397 352.42 219.87C353.75 219.1 354.83 219.87 354.83 221.7V236.14C354.818 237.044 354.594 237.932 354.175 238.733C353.756 239.533 353.155 240.224 352.42 240.75Z" fill="#37474F"/>
<path d="M350 238.93V224.48C350.014 223.577 350.24 222.69 350.658 221.889C351.077 221.089 351.677 220.397 352.41 219.87C352.631 219.719 352.886 219.627 353.152 219.603C353.418 219.578 353.686 219.622 353.93 219.73L352.12 218.79C351.874 218.666 351.598 218.611 351.323 218.632C351.048 218.653 350.784 218.749 350.56 218.91C349.824 219.435 349.221 220.126 348.8 220.926C348.38 221.727 348.154 222.616 348.14 223.52V238C348.102 238.365 348.157 238.733 348.3 239.071C348.444 239.409 348.671 239.704 348.96 239.93L350.85 240.93C350.537 240.708 350.292 240.404 350.141 240.05C349.991 239.697 349.942 239.309 350 238.93Z" fill="#455A64"/>
<path d="M323 124.48L195.88 51.06C195.349 50.7548 194.748 50.5937 194.136 50.5925C193.524 50.5914 192.922 50.7503 192.391 51.0536C191.859 51.3568 191.416 51.7938 191.105 52.3212C190.795 52.8486 190.627 53.448 190.62 54.06V331.51C190.62 340.77 197.19 352.14 205.21 356.77L329.21 428.4C329.798 428.738 330.465 428.916 331.143 428.916C331.822 428.915 332.488 428.736 333.076 428.397C333.663 428.058 334.151 427.57 334.491 426.982C334.83 426.395 335.009 425.729 335.01 425.05V145.31C335.06 137.67 329.64 128.3 323 124.48Z" fill="#F30000"/>
<path opacity="0.9" d="M323 124.48L195.88 51.06C195.349 50.7548 194.748 50.5937 194.136 50.5925C193.524 50.5914 192.922 50.7503 192.391 51.0536C191.859 51.3568 191.416 51.7938 191.105 52.3212C190.795 52.8486 190.627 53.448 190.62 54.06V331.51C190.62 340.77 197.19 352.14 205.21 356.77L329.21 428.4C329.798 428.738 330.465 428.916 331.143 428.916C331.822 428.915 332.488 428.736 333.076 428.397C333.663 428.058 334.151 427.57 334.491 426.982C334.83 426.395 335.009 425.729 335.01 425.05V145.31C335.06 137.67 329.64 128.3 323 124.48Z" fill="white"/>
<path d="M233.9 70.23L235.87 78.52L278.01 102.82L285.29 98.94L233.9 70.23Z" fill="#455A64"/>
<path d="M246.29 78.24C246.29 79.62 245.29 80.17 244.13 79.49C243.507 79.0766 242.99 78.5228 242.62 77.8733C242.25 77.2238 242.038 76.4965 242 75.75C242 74.38 243 73.82 244.16 74.51C244.783 74.9213 245.3 75.4732 245.67 76.1211C246.04 76.769 246.252 77.4948 246.29 78.24Z" fill="#263238"/>
<path d="M274.68 95.79C274.449 95.7882 274.223 95.7298 274.02 95.62L252.5 83.62C252.196 83.4416 251.974 83.1514 251.881 82.8115C251.789 82.4716 251.832 82.1088 252.003 81.8008C252.174 81.4927 252.459 81.2637 252.797 81.1626C253.134 81.0616 253.498 81.0966 253.81 81.26L275.34 93.26C275.602 93.4055 275.808 93.6338 275.925 93.9091C276.043 94.1844 276.066 94.4911 275.99 94.7808C275.915 95.0706 275.745 95.3269 275.508 95.5096C275.271 95.6923 274.979 95.791 274.68 95.79Z" fill="#263238"/>
<path d="M217.28 108.8C215.97 108.04 215.02 108.7 215.02 110.37C215.02 111.205 215.226 112.027 215.621 112.763C216.015 113.5 216.585 114.127 217.28 114.59C217.652 114.816 218.079 114.935 218.515 114.935C218.951 114.935 219.378 114.816 219.75 114.59L221.84 118.37C221.105 118.776 220.271 118.969 219.432 118.928C218.594 118.888 217.783 118.615 217.09 118.14C215.392 117.101 213.976 115.66 212.968 113.943C211.96 112.227 211.391 110.289 211.31 108.3C211.31 104.59 213.8 103.3 217.23 105.3C219.167 106.547 220.754 108.268 221.84 110.3L219.75 111.96C219.235 110.699 218.38 109.605 217.28 108.8Z" fill="#F30000"/>
<path d="M233.87 121.33C233.87 125.07 231.34 126.33 227.87 124.33C226.124 123.286 224.662 121.827 223.615 120.083C222.569 118.338 221.969 116.362 221.87 114.33C221.87 110.59 224.4 109.33 227.87 111.33C229.621 112.369 231.085 113.827 232.133 115.572C233.18 117.318 233.777 119.296 233.87 121.33ZM225.58 116.56C225.598 117.418 225.819 118.261 226.226 119.017C226.633 119.773 227.213 120.422 227.92 120.91C229.16 121.63 230.16 120.91 230.16 119.21C230.157 118.371 229.951 117.544 229.561 116.801C229.172 116.058 228.609 115.42 227.92 114.94C226.66 114.21 225.58 114.83 225.58 116.56Z" fill="#F30000"/>
<path d="M237.9 117.36L242.22 126.36V119.88L245.49 121.77V134.38L242.49 132.64L238.19 123.72V130.16L234.9 128.26V115.62L237.9 117.36Z" fill="#F30000"/>
<path d="M256.18 127.91V131.21L253.06 129.41V138.73L249.45 136.64V127.32L246.35 125.53V122.24L256.18 127.91Z" fill="#F30000"/>
<path d="M263.22 142.81L259.12 140.44L258.56 141.9L254.86 139.76L259.47 129.81L263.18 131.95L267.62 147.13L263.77 144.91L263.22 142.81ZM262.33 139.31L261.21 135L260.06 138L262.33 139.31Z" fill="#F30000"/>
<path d="M273.35 141.17C272.04 140.42 271.09 141.07 271.09 142.75C271.092 143.585 271.299 144.406 271.693 145.142C272.087 145.878 272.656 146.506 273.35 146.97C273.725 147.194 274.153 147.312 274.59 147.312C275.027 147.312 275.455 147.194 275.83 146.97L277.92 150.75C277.182 151.151 276.347 151.342 275.508 151.301C274.668 151.261 273.856 150.99 273.16 150.52C271.461 149.48 270.044 148.037 269.036 146.319C268.028 144.601 267.459 142.661 267.38 140.67C267.38 136.96 269.88 135.67 273.3 137.67C275.234 138.923 276.823 140.643 277.92 142.67L275.83 144.32C275.303 143.065 274.446 141.977 273.35 141.17Z" fill="#F30000"/>
<path d="M287.78 146.16V149.45L284.66 147.65V157L281.05 154.91V145.59L277.95 143.8V140.51L287.78 146.16Z" fill="#F30000"/>
<path d="M298.45 161.64C299.34 162.15 300.02 161.75 300.02 160.5V153.23L303.64 155.31V162.58C303.64 165.93 301.64 166.93 298.44 165.1C296.898 164.244 295.602 163.006 294.676 161.506C293.75 160.005 293.224 158.292 293.15 156.53V149.26L296.77 151.35V158.62C296.784 159.222 296.944 159.811 297.237 160.338C297.53 160.864 297.946 161.311 298.45 161.64Z" fill="#F30000"/>
<path d="M309.47 161.68C309.06 161.45 308.8 161.44 308.8 161.82C308.8 163.4 314.45 165.68 314.45 170.25C314.45 173.05 312.32 173.06 309.86 171.64C307.698 170.315 305.835 168.554 304.39 166.47L305.73 164.11C306.83 165.813 308.241 167.292 309.89 168.47C310.42 168.78 310.76 168.78 310.76 168.33C310.76 166.69 305.1 164.51 305.1 160.08C305.1 157.56 306.94 157.08 309.78 158.68C311.61 159.787 313.22 161.22 314.53 162.91L313.22 165.33C312.138 163.952 310.877 162.724 309.47 161.68Z" fill="#F30000"/>
<path d="M199.09 170.94C203.147 165.957 205.19 159.634 204.814 153.218C204.439 146.803 201.672 140.762 197.061 136.286C192.45 131.81 186.329 129.225 179.905 129.04C173.481 128.856 167.222 131.086 162.362 135.29C157.501 139.494 154.393 145.367 153.65 151.75C152.908 158.133 154.584 164.563 158.349 169.771C162.114 174.979 167.694 178.587 173.989 179.882C180.283 181.178 186.834 180.068 192.35 176.77L204.87 182.21L199.09 170.94Z" fill="#F30000"/>
<path opacity="0.4" d="M199.09 170.94C203.147 165.957 205.19 159.634 204.814 153.218C204.439 146.803 201.672 140.762 197.061 136.286C192.45 131.81 186.329 129.225 179.905 129.04C173.481 128.856 167.222 131.086 162.362 135.29C157.501 139.494 154.393 145.367 153.65 151.75C152.908 158.133 154.584 164.563 158.349 169.771C162.114 174.979 167.694 178.587 173.989 179.882C180.283 181.178 186.834 180.068 192.35 176.77L204.87 182.21L199.09 170.94Z" fill="black"/>
<path d="M169.65 153.34C169.65 152.95 169.37 152.73 168.86 152.73C167.677 152.885 166.572 153.406 165.7 154.22L164.28 151.46C165.775 150.335 167.58 149.7 169.45 149.64C171.85 149.64 173.67 150.9 173.67 152.78C173.67 154.12 172.67 155.41 171.39 156.7L169.6 158.47H173.83V161.41H164.74V159L168.79 154.81C169.226 154.424 169.527 153.909 169.65 153.34Z" fill="white"/>
<path d="M181.23 149.81L178.47 156.43H179.6V154.2H183.08V156.43H184.4V159.16H183.08V161.41H179.6V159.16H174.65V156.68L177.65 149.81H181.23Z" fill="white"/>
<path d="M195.14 155.64V161.41H191.42V156.71C191.441 156.557 191.43 156.401 191.386 156.253C191.342 156.105 191.267 155.968 191.165 155.851C191.064 155.735 190.939 155.641 190.798 155.577C190.657 155.513 190.505 155.48 190.35 155.48C189.62 155.48 189.16 156.05 189.16 156.93V161.41H185.44V149.15H189.16V153.66C189.451 153.2 189.857 152.824 190.337 152.568C190.817 152.312 191.356 152.185 191.9 152.2C192.346 152.189 192.789 152.271 193.201 152.443C193.613 152.614 193.983 152.871 194.289 153.196C194.595 153.52 194.829 153.906 194.975 154.327C195.122 154.748 195.178 155.196 195.14 155.64Z" fill="white"/>
<path d="M316.44 248.56V372.81C316.442 374.215 316.074 375.596 315.373 376.814C314.671 378.032 313.662 379.043 312.445 379.747C311.229 380.45 309.848 380.821 308.443 380.822C307.038 380.822 305.657 380.452 304.44 379.75L237.52 341.11L225.66 334.27C221.576 331.908 218.183 328.516 215.821 324.433C213.459 320.349 212.211 315.717 212.2 311V186.74C212.198 185.335 212.566 183.954 213.267 182.736C213.969 181.518 214.978 180.506 216.195 179.803C217.411 179.099 218.792 178.729 220.197 178.728C221.602 178.728 222.983 179.097 224.2 179.8L303 225.29C307.086 227.648 310.479 231.039 312.838 235.124C315.197 239.209 316.439 243.843 316.44 248.56Z" fill="#F30000"/>
<path opacity="0.5" d="M316.44 248.56V372.81C316.442 374.215 316.074 375.596 315.373 376.814C314.671 378.032 313.662 379.043 312.445 379.747C311.229 380.45 309.848 380.821 308.443 380.822C307.038 380.822 305.657 380.452 304.44 379.75L237.52 341.11L225.66 334.27C221.576 331.908 218.183 328.516 215.821 324.433C213.459 320.349 212.211 315.717 212.2 311V186.74C212.198 185.335 212.566 183.954 213.267 182.736C213.969 181.518 214.978 180.506 216.195 179.803C217.411 179.099 218.792 178.729 220.197 178.728C221.602 178.728 222.983 179.097 224.2 179.8L303 225.29C307.086 227.648 310.479 231.039 312.838 235.124C315.197 239.209 316.439 243.843 316.44 248.56Z" fill="white"/>
<path d="M277.89 322.08C277.89 322.08 290.42 342.86 281.37 366.29L237.49 341.11L277.89 322.08Z" fill="#263238"/>
<path d="M297.873 228.717C298.821 221.016 293.346 214.004 285.645 213.055C277.944 212.107 270.932 217.581 269.983 225.283C269.035 232.984 274.509 239.996 282.211 240.945C289.912 241.893 296.924 236.419 297.873 228.717Z" fill="#263238"/>
<path d="M284 187.59C284 187.59 288.31 180.59 289.63 181.1C290.95 181.61 288.77 188.28 288.77 188.28C288.77 188.28 295.29 189.64 294.08 191.28C292.87 192.92 284.9 192.53 284.9 192.53L284 187.59Z" fill="#263238"/>
<path d="M287 205.63C284 228.17 265 228.17 265 228.17L225.2 210.65C225.2 210.65 222.2 208.02 221.28 201.98C220.927 199.506 220.927 196.994 221.28 194.52C221.28 194.52 221.28 194.47 221.28 194.45C222.55 184.97 229.64 174.78 245.08 171.65C248.464 170.967 251.908 170.632 255.36 170.65C257.03 170.644 258.699 170.727 260.36 170.9C272.36 172.08 280.77 177.68 284.78 186.39C285.682 188.356 286.353 190.42 286.78 192.54C287.594 196.859 287.668 201.286 287 205.63Z" fill="#263238"/>
<path d="M191.45 249.23C191.45 249.23 177.32 248.74 171.88 262.51C171.88 262.51 177.88 266.56 185.75 262.51C193.62 258.46 191.45 249.23 191.45 249.23Z" fill="#F30000"/>
<path opacity="0.5" d="M191.45 249.23C191.45 249.23 177.32 248.74 171.88 262.51C171.88 262.51 177.88 266.56 185.75 262.51C193.62 258.46 191.45 249.23 191.45 249.23Z" fill="black"/>
<path d="M191.05 255.86C191.05 255.86 187.05 238.48 184.94 238.27C182.83 238.06 182.42 243.57 182.59 246.68L177.59 235.92C177.431 235.586 177.206 235.287 176.928 235.043C176.649 234.8 176.324 234.615 175.972 234.502C175.619 234.388 175.248 234.348 174.879 234.384C174.511 234.42 174.154 234.531 173.83 234.71C168.83 237.46 160.06 245.82 178.55 266.49L191.05 255.86Z" fill="#945959"/>
<path d="M242.25 243.84L239.25 243.45C236.227 243.049 233.151 243.46 230.339 244.641C227.527 245.822 225.08 247.73 223.25 250.17L205.4 273.93L191.4 249.23C191.4 249.23 189.72 266.03 171.83 262.51L191.04 294.84C192.256 296.887 193.948 298.609 195.972 299.862C197.997 301.114 200.294 301.859 202.668 302.032C205.043 302.206 207.424 301.804 209.609 300.86C211.794 299.916 213.719 298.458 215.22 296.61L231.66 276.4L242.25 243.84Z" fill="#F30000"/>
<path d="M280.35 299.29C276.35 309.43 275.91 311.41 278.35 316.48C280.049 320.224 281.389 324.122 282.35 328.12C282.35 328.12 263.81 348.9 237.42 341.12L225.56 334.28C223.094 332.858 220.872 331.048 218.98 328.92L222.59 302C222.772 300.583 222.628 299.143 222.17 297.79L218.38 286.68C216.531 281.254 216.255 275.414 217.586 269.838C218.917 264.262 221.799 259.176 225.9 255.17L238.64 242.72L272.1 247L277.1 248.43C280.373 249.377 283.195 251.473 285.047 254.333C286.899 257.193 287.656 260.626 287.18 264C285.54 275.8 282.86 292.92 280.35 299.29Z" fill="#F30000"/>
<path opacity="0.5" d="M280.35 299.29C276.35 309.43 275.91 311.41 278.35 316.48C280.049 320.224 281.389 324.122 282.35 328.12C282.35 328.12 263.81 348.9 237.42 341.12L225.56 334.28C223.094 332.858 220.872 331.048 218.98 328.92L222.59 302C222.772 300.583 222.628 299.143 222.17 297.79L218.38 286.68C216.531 281.254 216.255 275.414 217.586 269.838C218.917 264.262 221.799 259.176 225.9 255.17L238.64 242.72L272.1 247L277.1 248.43C280.373 249.377 283.195 251.473 285.047 254.333C286.899 257.193 287.656 260.626 287.18 264C285.54 275.8 282.86 292.92 280.35 299.29Z" fill="black"/>
<path d="M260.17 269L253.47 263.29C252.76 262.683 251.905 262.271 250.988 262.096C250.071 261.921 249.123 261.988 248.24 262.29L240.14 265.08L239.05 260.54C238.88 259.834 238.568 259.169 238.135 258.586C237.701 258.004 237.153 257.515 236.525 257.149C235.897 256.784 235.202 256.55 234.481 256.46C233.76 256.371 233.028 256.429 232.33 256.63L228.82 257.63L234.76 246.25C236.7 242.544 239.687 239.49 243.35 237.47L245.68 236.19L264.93 237.19C264.93 237.19 272.1 240.19 272.1 246.94L260.17 268.94" fill="#F30000"/>
<path d="M265.01 245.72L245.71 260.76V212.87H265.01V245.72Z" fill="#945959"/>
<path d="M246.01 241.77L240.14 265.12L264.93 245.72L246.01 241.77Z" fill="#945959"/>
<path d="M245.71 238.3C250.002 236.706 253.925 234.257 257.241 231.101C260.557 227.945 263.197 224.148 265 219.94V212.87H245.7L245.71 238.3Z" fill="#703838"/>
<path d="M249.87 177.38C242.55 177.38 226.99 181.46 225.19 200.62C223.39 219.78 225.13 234.62 235.01 236.06C244.89 237.5 267.85 230.33 270.93 205.53C274.01 180.73 257 177.38 249.87 177.38Z" fill="#945959"/>
<path d="M238.35 208.73V220.02L231.73 217.99L238.35 208.73Z" fill="#703838"/>
<path d="M245.71 212.98C246.98 212.98 248.01 211.95 248.01 210.68C248.01 209.41 246.98 208.38 245.71 208.38C244.44 208.38 243.41 209.41 243.41 210.68C243.41 211.95 244.44 212.98 245.71 212.98Z" fill="#263238"/>
<path d="M232.87 209.08C232.868 209.534 232.731 209.978 232.478 210.355C232.224 210.732 231.864 211.025 231.443 211.198C231.023 211.37 230.561 211.414 230.115 211.325C229.67 211.235 229.261 211.015 228.94 210.693C228.619 210.371 228.401 209.961 228.313 209.515C228.226 209.069 228.272 208.607 228.446 208.188C228.62 207.768 228.915 207.409 229.293 207.157C229.671 206.905 230.116 206.77 230.57 206.77C230.873 206.77 231.173 206.83 231.452 206.946C231.732 207.062 231.986 207.233 232.2 207.447C232.414 207.662 232.583 207.917 232.698 208.197C232.813 208.477 232.871 208.777 232.87 209.08Z" fill="#263238"/>
<path d="M227.76 204.28L232.26 201.61C232.26 201.61 230.54 199.82 228.82 200.89C227.1 201.96 227.76 204.28 227.76 204.28Z" fill="#263238"/>
<path d="M235.24 224.6C237.431 224.76 239.613 224.175 241.43 222.94C241.43 222.94 241.86 226.21 239.12 226.83C236.38 227.45 235.24 224.6 235.24 224.6Z" fill="#703838"/>
<path d="M231.31 183.9C231.31 183.9 234.06 210.35 270.03 211.18C270.03 211.18 280.9 184.89 259.42 176.35C237.94 167.81 231.31 183.9 231.31 183.9Z" fill="#263238"/>
<path d="M280.62 207.22L276.2 204.66C274.52 203.66 272.2 203.8 269.63 205.28C264.53 208.22 260.39 215.39 260.39 221.28C260.39 224.23 261.39 226.28 263.11 227.28L267.45 229.78L267.7 229.92L267.85 230.01C269.49 230.81 271.68 230.62 274.09 229.23C279.19 226.23 283.33 219.12 283.33 213.23C283.3 210.25 282.27 208.19 280.62 207.22Z" fill="#F30000"/>
<path d="M280.585 222.282C284.191 216.035 284.192 209.284 280.585 207.202C276.979 205.12 271.132 208.495 267.525 214.742C263.919 220.988 263.919 227.74 267.525 229.822C271.132 231.904 276.979 228.528 280.585 222.282Z" fill="#F30000"/>
<path opacity="0.5" d="M280.585 222.282C284.191 216.035 284.192 209.284 280.585 207.202C276.979 205.12 271.132 208.495 267.525 214.742C263.919 220.988 263.919 227.74 267.525 229.822C271.132 231.904 276.979 228.528 280.585 222.282Z" fill="black"/>
<path d="M282.39 212.77L279.39 211.02C278.25 210.34 276.66 210.43 274.9 211.44C273.061 212.642 271.531 214.259 270.434 216.161C269.336 218.063 268.701 220.197 268.58 222.39C268.58 224.39 269.29 225.82 270.44 226.48L273.44 228.19C273.493 228.229 273.55 228.262 273.61 228.29L273.71 228.35C274.413 228.617 275.171 228.707 275.917 228.613C276.663 228.519 277.375 228.243 277.99 227.81C279.827 226.609 281.356 224.994 282.454 223.094C283.552 221.193 284.188 219.061 284.31 216.87C284.23 214.84 283.53 213.43 282.39 212.77Z" fill="#F30000"/>
<path d="M284.23 216.85C284.108 219.041 283.472 221.173 282.374 223.073C281.276 224.974 279.747 226.589 277.91 227.79C274.41 229.79 271.58 228.17 271.58 224.14C271.699 221.947 272.334 219.813 273.434 217.911C274.534 216.01 276.068 214.396 277.91 213.2C281.4 211.18 284.23 212.81 284.23 216.85Z" fill="#F30000"/>
<path opacity="0.3" d="M284.23 216.85C284.108 219.041 283.472 221.173 282.374 223.073C281.276 224.974 279.747 226.589 277.91 227.79C274.41 229.79 271.58 228.17 271.58 224.14C271.699 221.947 272.334 219.813 273.434 217.911C274.534 216.01 276.068 214.396 277.91 213.2C281.4 211.18 284.23 212.81 284.23 216.85Z" fill="black"/>
<path d="M266.89 172.22C264.023 170.006 260.512 168.787 256.89 168.75H256C252.332 168.71 248.67 169.046 245.07 169.75C245.73 169.75 246.39 169.75 247.07 169.75H245.07V171.61H246.93C253.34 171.828 259.415 174.53 263.869 179.145C268.323 183.76 270.809 189.926 270.8 196.34V204.21C270.8 204.521 270.865 204.829 270.991 205.113C271.117 205.397 271.302 205.652 271.533 205.86C271.764 206.069 272.036 206.226 272.332 206.323C272.628 206.419 272.941 206.452 273.25 206.42H273.48L275.48 205.8C275.347 205.842 275.209 205.869 275.07 205.88C275.666 205.799 276.212 205.502 276.603 205.044C276.994 204.587 277.203 204.002 277.19 203.4V196.1C277.17 182.89 271.46 175.79 266.89 172.22Z" fill="#F30000"/>
<path d="M254.3 235.51C253.475 235.51 252.66 235.333 251.91 234.99L245.66 232.1C245.562 232.065 245.473 232.01 245.397 231.939C245.322 231.867 245.262 231.781 245.222 231.686C245.181 231.59 245.161 231.487 245.163 231.383C245.164 231.279 245.187 231.177 245.23 231.083C245.273 230.988 245.335 230.904 245.413 230.834C245.49 230.765 245.581 230.713 245.68 230.681C245.778 230.648 245.883 230.637 245.986 230.647C246.089 230.657 246.189 230.689 246.28 230.74L252.53 233.63C253.327 234.001 254.22 234.113 255.084 233.952C255.948 233.79 256.74 233.363 257.35 232.73L263.35 226.53C263.491 226.389 263.681 226.311 263.88 226.311C264.079 226.311 264.269 226.389 264.41 226.53C264.548 226.672 264.625 226.862 264.625 227.06C264.625 227.258 264.548 227.448 264.41 227.59L258.41 233.79C257.876 234.338 257.237 234.773 256.53 235.069C255.824 235.364 255.066 235.514 254.3 235.51Z" fill="#F30000"/>
<path opacity="0.5" d="M254.3 235.51C253.475 235.51 252.66 235.333 251.91 234.99L245.66 232.1C245.562 232.065 245.473 232.01 245.397 231.939C245.322 231.867 245.262 231.781 245.222 231.686C245.181 231.59 245.161 231.487 245.163 231.383C245.164 231.279 245.187 231.177 245.23 231.083C245.273 230.988 245.335 230.904 245.413 230.834C245.49 230.765 245.581 230.713 245.68 230.681C245.778 230.648 245.883 230.637 245.986 230.647C246.089 230.657 246.189 230.689 246.28 230.74L252.53 233.63C253.327 234.001 254.22 234.113 255.084 233.952C255.948 233.79 256.74 233.363 257.35 232.73L263.35 226.53C263.491 226.389 263.681 226.311 263.88 226.311C264.079 226.311 264.269 226.389 264.41 226.53C264.548 226.672 264.625 226.862 264.625 227.06C264.625 227.258 264.548 227.448 264.41 227.59L258.41 233.79C257.876 234.338 257.237 234.773 256.53 235.069C255.824 235.364 255.066 235.514 254.3 235.51Z" fill="black"/>
<path d="M247.3 230C247.3 230.578 247.129 231.142 246.808 231.622C246.487 232.103 246.031 232.477 245.497 232.698C244.964 232.919 244.377 232.977 243.81 232.864C243.244 232.751 242.724 232.473 242.315 232.065C241.907 231.656 241.629 231.136 241.516 230.57C241.403 230.003 241.461 229.416 241.682 228.883C241.903 228.349 242.278 227.893 242.758 227.572C243.238 227.251 243.803 227.08 244.38 227.08C245.154 227.08 245.897 227.388 246.445 227.935C246.992 228.483 247.3 229.226 247.3 230Z" fill="#F30000"/>
<path opacity="0.5" d="M247.3 230C247.3 230.578 247.129 231.142 246.808 231.622C246.487 232.103 246.031 232.477 245.497 232.698C244.964 232.919 244.377 232.977 243.81 232.864C243.244 232.751 242.724 232.473 242.315 232.065C241.907 231.656 241.629 231.136 241.516 230.57C241.403 230.003 241.461 229.416 241.682 228.883C241.903 228.349 242.278 227.893 242.758 227.572C243.238 227.251 243.803 227.08 244.38 227.08C245.154 227.08 245.897 227.388 246.445 227.935C246.992 228.483 247.3 229.226 247.3 230Z" fill="black"/>
<path d="M277.17 196.1V203.4C277.183 204.002 276.974 204.587 276.583 205.044C276.192 205.502 275.646 205.799 275.05 205.88C274.721 205.915 274.387 205.88 274.072 205.778C273.757 205.676 273.467 205.509 273.221 205.287C272.975 205.065 272.778 204.794 272.643 204.492C272.509 204.189 272.44 203.861 272.44 203.53V196.1C272.446 192.554 271.734 189.043 270.347 185.78C268.961 182.516 266.929 179.566 264.373 177.108C261.817 174.65 258.79 172.735 255.474 171.477C252.159 170.22 248.623 169.646 245.08 169.79C248.68 169.086 252.342 168.75 256.01 168.79H256.88C260.502 168.827 264.013 170.046 266.88 172.26C271.46 175.79 277.17 182.89 277.17 196.1Z" fill="#F30000"/>
<path opacity="0.5" d="M277.17 196.1V203.4C277.183 204.002 276.974 204.587 276.583 205.044C276.192 205.502 275.646 205.799 275.05 205.88C274.721 205.915 274.387 205.88 274.072 205.778C273.757 205.676 273.467 205.509 273.221 205.287C272.975 205.065 272.778 204.794 272.643 204.492C272.509 204.189 272.44 203.861 272.44 203.53V196.1C272.446 192.554 271.734 189.043 270.347 185.78C268.961 182.516 266.929 179.566 264.373 177.108C261.817 174.65 258.79 172.735 255.474 171.477C252.159 170.22 248.623 169.646 245.08 169.79C248.68 169.086 252.342 168.75 256.01 168.79H256.88C260.502 168.827 264.013 170.046 266.88 172.26C271.46 175.79 277.17 182.89 277.17 196.1Z" fill="black"/>
<path d="M265.93 333.67C265.93 333.67 261.09 347 278.39 353C278.39 353 284.04 344.7 278.39 337.91C272.74 331.12 265.93 333.67 265.93 333.67Z" fill="#F30000"/>
<path opacity="0.7" d="M265.93 333.67C265.93 333.67 261.09 347 278.39 353C278.39 353 284.04 344.7 278.39 337.91C272.74 331.12 265.93 333.67 265.93 333.67Z" fill="black"/>
<path d="M272 334.28C272 334.28 255.1 340.47 255.19 342.87C255.28 345.27 262.37 343.63 262.37 343.63L259.78 345.33C257.053 347.11 254.94 349.687 253.73 352.71C253.466 353.377 253.457 354.117 253.704 354.79C253.951 355.464 254.437 356.022 255.07 356.36L261.49 359.76C261.853 359.952 262.25 360.07 262.659 360.106C263.068 360.142 263.48 360.096 263.87 359.97C264.261 359.844 264.622 359.641 264.933 359.373C265.244 359.105 265.498 358.778 265.68 358.41C266.038 357.703 266.532 357.074 267.135 356.559C267.737 356.044 268.436 355.653 269.19 355.41C272.68 354.25 279.19 350.91 281.8 341.77L272 334.28Z" fill="#945959"/>
<path d="M277.07 248.41C277.07 248.41 268.07 253.41 272.85 268.59C277.63 283.77 286.6 307.32 286.6 307.32L265.93 333.67C268.138 333.936 270.266 334.665 272.173 335.809C274.081 336.954 275.725 338.487 277 340.31C278.221 342.163 278.984 344.281 279.226 346.487C279.467 348.694 279.181 350.926 278.39 353L304.05 320C306.423 316.95 307.998 313.357 308.634 309.546C309.27 305.734 308.945 301.825 307.69 298.17L296.69 266.05C295.345 262.126 293.111 258.567 290.162 255.651C287.213 252.735 283.628 250.54 279.69 249.24L277.07 248.41Z" fill="#F30000"/>
<path d="M125.15 158.74L85.38 135.74C84.9223 135.423 84.3928 135.225 83.8393 135.164C83.2858 135.102 82.7258 135.18 82.21 135.39C82.1013 135.44 81.9975 135.5 81.9 135.57L73.25 140.64H73.31C72.22 141.26 71.53 142.7 71.53 144.76V189C71.53 192.74 73.8 197.09 76.61 198.71L116.38 221.71C116.885 222.075 117.485 222.284 118.107 222.31C118.73 222.337 119.346 222.18 119.88 221.86C119.853 221.871 119.829 221.888 119.81 221.91L128.4 216.91C129.52 216.31 130.23 214.85 130.23 212.76V168.45C130.23 164.71 128 160.36 125.15 158.74Z" fill="#F30000"/>
<path d="M128.81 162.93C128.005 161.219 126.737 159.767 125.15 158.74L85.38 135.74C84.9223 135.423 84.3928 135.225 83.8393 135.164C83.2858 135.102 82.7258 135.18 82.21 135.39C82.1013 135.44 81.9975 135.5 81.9 135.57L73.25 140.64C73.7791 140.37 74.3724 140.25 74.965 140.294C75.5577 140.338 76.1267 140.544 76.61 140.89L116.38 163.89C118.021 164.963 119.322 166.483 120.13 168.27L128.81 162.93Z" fill="#F30000"/>
<path d="M121.46 217.82C121.46 219.82 120.82 221.21 119.81 221.82L128.4 216.82C129.52 216.22 130.23 214.76 130.23 212.67V168.45C130.188 166.525 129.702 164.636 128.81 162.93L120.13 168.27C120.963 169.926 121.418 171.747 121.46 173.6V217.82Z" fill="#F30000"/>
<path opacity="0.3" d="M128.81 162.93C128.005 161.219 126.737 159.767 125.15 158.74L85.38 135.74C84.9223 135.423 84.3928 135.225 83.8393 135.164C83.2858 135.102 82.7258 135.18 82.21 135.39C82.1013 135.44 81.9975 135.5 81.9 135.57L73.25 140.64C73.7791 140.37 74.3724 140.25 74.965 140.294C75.5577 140.338 76.1267 140.544 76.61 140.89L116.38 163.89C118.021 164.963 119.322 166.483 120.13 168.27L128.81 162.93Z" fill="black"/>
<path opacity="0.6" d="M121.46 217.82C121.46 219.82 120.82 221.21 119.81 221.82L128.4 216.82C129.52 216.22 130.23 214.76 130.23 212.67V168.45C130.188 166.525 129.702 164.636 128.81 162.93L120.13 168.27C120.963 169.926 121.418 171.747 121.46 173.6V217.82Z" fill="black"/>
<path d="M109.8 186.27C109.8 192 107.53 193.95 104.13 191.98C103.192 191.446 102.372 190.728 101.719 189.868C101.066 189.009 100.593 188.027 100.33 186.98C99.33 188.21 97.78 188.29 95.6 187.03C92.02 184.96 89.2 180.03 89.2 175.24C89.2 170.45 91.99 168.8 95.6 170.88C97.4318 171.96 98.9115 173.547 99.86 175.45V173.56L103.63 175.74V186.1C103.574 186.645 103.668 187.195 103.903 187.691C104.137 188.186 104.503 188.608 104.96 188.91C106.23 189.65 107.01 188.4 107.01 184.69C107.01 178.2 102.85 171.32 96.7 167.77C90.55 164.22 86.4 166.69 86.4 173.37C86.4806 176.915 87.4573 180.381 89.2391 183.446C91.0209 186.512 93.5498 189.076 96.59 190.9C98.2407 191.917 100.115 192.514 102.05 192.64L102.94 196.09C100.687 195.908 98.5103 195.192 96.59 194C88.59 189.37 83.3 180.05 83.3 171.61C83.3 163.17 88.64 160.11 96.7 164.77C104.49 169.26 109.8 178.25 109.8 186.27ZM99.92 181.46C99.9394 180.192 99.63 178.94 99.0219 177.828C98.4138 176.715 97.5277 175.778 96.45 175.11C94.45 173.94 93.02 174.76 93.02 177.48C92.9943 178.75 93.2964 180.005 93.8972 181.125C94.498 182.244 95.3773 183.189 96.45 183.87C98.45 185 99.92 184.27 99.92 181.46Z" fill="#F30000"/>
<g opacity="0.9">
<path d="M109.8 186.27C109.8 192 107.53 193.95 104.13 191.98C103.192 191.446 102.372 190.728 101.719 189.868C101.066 189.009 100.593 188.027 100.33 186.98C99.33 188.21 97.78 188.29 95.6 187.03C92.02 184.96 89.2 180.03 89.2 175.24C89.2 170.45 91.99 168.8 95.6 170.88C97.4318 171.96 98.9115 173.547 99.86 175.45V173.56L103.63 175.74V186.1C103.574 186.645 103.668 187.195 103.903 187.691C104.137 188.186 104.503 188.608 104.96 188.91C106.23 189.65 107.01 188.4 107.01 184.69C107.01 178.2 102.85 171.32 96.7 167.77C90.55 164.22 86.4 166.69 86.4 173.37C86.4806 176.915 87.4573 180.381 89.2391 183.446C91.0209 186.512 93.5498 189.076 96.59 190.9C98.2407 191.917 100.115 192.514 102.05 192.64L102.94 196.09C100.687 195.908 98.5103 195.192 96.59 194C88.59 189.37 83.3 180.05 83.3 171.61C83.3 163.17 88.64 160.11 96.7 164.77C104.49 169.26 109.8 178.25 109.8 186.27ZM99.92 181.46C99.9394 180.192 99.63 178.94 99.0219 177.828C98.4138 176.715 97.5277 175.778 96.45 175.11C94.45 173.94 93.02 174.76 93.02 177.48C92.9943 178.75 93.2964 180.005 93.8972 181.125C94.498 182.244 95.3773 183.189 96.45 183.87C98.45 185 99.92 184.27 99.92 181.46Z" fill="white"/>
</g>
<path d="M125.15 237.52L85.38 214.52C84.923 214.201 84.3928 214.003 83.8386 213.943C83.2845 213.884 82.7243 213.965 82.21 214.18C82.1013 214.23 81.9975 214.29 81.9 214.36L73.25 219.43H73.31C72.22 220.05 71.53 221.49 71.53 223.54V267.76C71.53 271.51 73.8 275.85 76.61 277.47L116.38 300.47C116.884 300.837 117.485 301.048 118.107 301.074C118.73 301.101 119.347 300.943 119.88 300.62L119.81 300.68L128.4 295.63C129.52 295.04 130.23 293.63 130.23 291.48V247.22C130.23 243.48 128 239.14 125.15 237.52Z" fill="#F30000"/>
<path d="M128.81 241.71C128.008 239.997 126.74 238.545 125.15 237.52L85.38 214.52C84.923 214.201 84.3928 214.003 83.8386 213.943C83.2845 213.884 82.7243 213.965 82.21 214.18C82.1013 214.23 81.9975 214.29 81.9 214.36L73.25 219.43C73.7779 219.157 74.3709 219.035 74.9638 219.077C75.5566 219.12 76.1262 219.325 76.61 219.67L116.38 242.67C118.024 243.745 119.326 245.268 120.13 247.06L128.81 241.71Z" fill="#F30000"/>
<path d="M121.46 296.59C121.46 298.59 120.82 299.98 119.81 300.64L128.4 295.59C129.52 295 130.23 293.59 130.23 291.44V247.22C130.188 245.298 129.702 243.413 128.81 241.71L120.13 247.05C120.963 248.702 121.418 250.52 121.46 252.37V296.59Z" fill="#F30000"/>
<path opacity="0.3" d="M128.81 241.71C128.008 239.997 126.74 238.545 125.15 237.52L85.38 214.52C84.923 214.201 84.3928 214.003 83.8386 213.943C83.2845 213.884 82.7243 213.965 82.21 214.18C82.1013 214.23 81.9975 214.29 81.9 214.36L73.25 219.43C73.7779 219.157 74.3709 219.035 74.9638 219.077C75.5566 219.12 76.1262 219.325 76.61 219.67L116.38 242.67C118.024 243.745 119.326 245.268 120.13 247.06L128.81 241.71Z" fill="black"/>
<path opacity="0.6" d="M121.46 296.59C121.46 298.59 120.82 299.98 119.81 300.64L128.4 295.59C129.52 295 130.23 293.59 130.23 291.44V247.22C130.188 245.298 129.702 243.413 128.81 241.71L120.13 247.05C120.963 248.702 121.418 250.52 121.46 252.37V296.59Z" fill="black"/>
<path d="M92.05 257.29L82.46 241.71V262.82L92.05 257.29Z" fill="#F30000"/>
<path d="M100.96 261.78L110.53 278.35V257.27L100.96 261.78Z" fill="#F30000"/>
<path d="M83.91 241L93.76 257C93.8017 257.035 93.8387 257.075 93.87 257.12C93.8787 257.16 93.8787 257.2 93.87 257.24L96.8 262L99.28 260.83C99.3186 260.788 99.3623 260.751 99.41 260.72C99.5078 260.663 99.6172 260.629 99.73 260.62L109.73 255.93L83.91 241Z" fill="#F30000"/>
<path d="M99.51 262.46L96.83 263.72C96.7268 263.768 96.6139 263.792 96.5 263.79C96.362 263.791 96.2259 263.757 96.105 263.691C95.9841 263.624 95.8825 263.527 95.81 263.41L92.88 258.65L83.26 264.21L109.15 279.15L99.51 262.46Z" fill="#F30000"/>
<g opacity="0.9">
<path d="M92.05 257.29L82.46 241.71V262.82L92.05 257.29Z" fill="white"/>
<path d="M100.96 261.78L110.53 278.35V257.27L100.96 261.78Z" fill="white"/>
<path d="M83.91 241L93.76 257C93.8017 257.035 93.8387 257.075 93.87 257.12C93.8787 257.16 93.8787 257.2 93.87 257.24L96.8 262L99.28 260.83C99.3186 260.788 99.3623 260.751 99.41 260.72C99.5078 260.663 99.6172 260.629 99.73 260.62L109.73 255.93L83.91 241Z" fill="white"/>
<path d="M99.51 262.46L96.83 263.72C96.7267 263.768 96.6139 263.792 96.5 263.79C96.362 263.791 96.2259 263.757 96.105 263.691C95.9841 263.624 95.8824 263.527 95.81 263.41L92.88 258.65L83.26 264.21L109.15 279.15L99.51 262.46Z" fill="white"/>
</g>
<path d="M125.15 80L85.38 57C84.923 56.681 84.3928 56.4826 83.8386 56.4232C83.2845 56.3637 82.7243 56.4452 82.21 56.66C82.1013 56.7102 81.9975 56.7704 81.9 56.84L73.25 61.91H73.31C72.22 62.52 71.53 63.97 71.53 66.02V110.24C71.53 113.98 73.8 118.33 76.61 119.95L116.38 142.95C116.884 143.317 117.485 143.528 118.107 143.554C118.73 143.581 119.347 143.423 119.88 143.1L119.81 143.15L128.4 138.15C129.52 137.56 130.23 136.15 130.23 134V89.67C130.23 85.93 128 81.58 125.15 80Z" fill="#F30000"/>
<path d="M128.81 84.16C128.008 82.4443 126.74 80.9888 125.15 79.96L85.38 57C84.923 56.681 84.3928 56.4826 83.8386 56.4232C83.2845 56.3637 82.7243 56.4452 82.21 56.66C82.1013 56.7102 81.9975 56.7704 81.9 56.84L73.25 61.91C73.7779 61.637 74.3709 61.5149 74.9638 61.5573C75.5566 61.5996 76.1262 61.8047 76.61 62.15L116.38 85.15C118.024 86.2246 119.326 87.7482 120.13 89.54L128.81 84.16Z" fill="#F30000"/>
<path d="M121.46 139C121.46 141 120.82 142.39 119.81 143L128.4 138C129.52 137.41 130.23 136 130.23 133.85V89.6699C130.188 87.7483 129.702 85.8626 128.81 84.1599L120.13 89.4999C120.963 91.1524 121.418 92.9698 121.46 94.8199V139Z" fill="#F30000"/>
<path opacity="0.3" d="M128.81 84.16C128.008 82.4443 126.74 80.9888 125.15 79.96L85.38 57C84.923 56.681 84.3928 56.4826 83.8386 56.4232C83.2845 56.3637 82.7243 56.4452 82.21 56.66C82.1013 56.7102 81.9975 56.7704 81.9 56.84L73.25 61.91C73.7779 61.637 74.3709 61.5149 74.9638 61.5573C75.5566 61.5996 76.1262 61.8047 76.61 62.15L116.38 85.15C118.024 86.2246 119.326 87.7482 120.13 89.54L128.81 84.16Z" fill="black"/>
<path opacity="0.6" d="M121.46 139C121.46 141 120.82 142.39 119.81 143L128.4 138C129.52 137.41 130.23 136 130.23 133.85V89.6699C130.188 87.7483 129.702 85.8626 128.81 84.1599L120.13 89.4999C120.963 91.1524 121.418 92.9698 121.46 94.8199V139Z" fill="black"/>
<path d="M108.45 120C106.92 117.48 105.38 115 103.85 112.46C103.607 111.979 103.268 111.553 102.853 111.209C102.439 110.865 101.958 110.61 101.44 110.46C100.7 110.31 99.96 110.14 99.2 109.92C98.9293 109.807 98.7017 109.611 98.55 109.36C96.0464 105.075 94.056 100.51 92.62 95.7601C92.5895 95.6585 92.5808 95.5516 92.5946 95.4465C92.6084 95.3413 92.6443 95.2403 92.7 95.1501C93.17 94.6801 93.7 94.2501 94.18 93.8301C94.66 93.4101 94.91 92.4401 94.56 91.1801C93.82 88.5101 93.11 85.8401 92.37 83.1801C92.2268 82.4243 91.8871 81.7195 91.385 81.1367C90.883 80.5539 90.2363 80.1136 89.51 79.8601C87.8974 79.4117 86.1854 79.4746 84.61 80.0401C84 80.2701 83.68 80.8201 83.67 81.7701C83.93 83.6001 84.1 85.4101 84.45 87.2701C86.9167 100.683 92.85 113.017 102.25 124.27C102.495 124.643 102.825 124.954 103.212 125.176C103.6 125.398 104.034 125.526 104.48 125.55C106.036 125.513 107.531 124.937 108.71 123.92C109.6 123.12 109.51 121.7 108.45 120Z" fill="#F30000"/>
<path d="M108.33 106.37C108.121 103.494 107.328 100.69 106 98.1299C105.008 96.1301 103.747 94.276 102.25 92.6199C101.86 92.1799 101.53 92.0399 101.33 92.3699C101.13 92.6999 101.33 93.1699 101.71 93.5999L102.1 94.0499C104.864 97.2405 106.606 101.188 107.1 105.38C107.095 105.686 107.125 105.991 107.19 106.29C107.316 106.634 107.517 106.945 107.78 107.2C107.99 107.35 108.23 107.2 108.4 107.2C108.34 106.79 108.35 106.58 108.33 106.37Z" fill="#F30000"/>
<path d="M99.27 98.16C100.526 99.5412 101.289 101.299 101.44 103.16C101.506 103.443 101.61 103.715 101.75 103.97C102.36 104.47 102.66 104.3 102.66 103.67C102.446 101.284 101.46 99.0337 99.85 97.26C99.47 96.87 99.16 96.75 98.98 97.08C98.9153 97.2684 98.9083 97.4718 98.9599 97.6643C99.0116 97.8567 99.1196 98.0293 99.27 98.16Z" fill="#F30000"/>
<g opacity="0.9">
<path d="M108.45 120C106.92 117.48 105.38 115 103.85 112.46C103.607 111.979 103.268 111.553 102.853 111.209C102.439 110.865 101.958 110.61 101.44 110.46C100.7 110.31 99.96 110.14 99.2 109.92C98.9293 109.807 98.7017 109.611 98.55 109.36C96.0464 105.075 94.056 100.51 92.62 95.7601C92.5895 95.6585 92.5808 95.5516 92.5946 95.4465C92.6084 95.3413 92.6443 95.2403 92.7 95.1501C93.17 94.6801 93.7 94.2501 94.18 93.8301C94.66 93.4101 94.91 92.4401 94.56 91.1801C93.82 88.5101 93.11 85.8401 92.37 83.1801C92.2268 82.4243 91.8871 81.7195 91.385 81.1367C90.883 80.5539 90.2363 80.1136 89.51 79.8601C87.8974 79.4117 86.1854 79.4746 84.61 80.0401C84 80.2701 83.68 80.8201 83.67 81.7701C83.93 83.6001 84.1 85.4101 84.45 87.2701C86.9167 100.683 92.85 113.017 102.25 124.27C102.495 124.643 102.825 124.954 103.212 125.176C103.6 125.398 104.034 125.526 104.48 125.55C106.036 125.513 107.531 124.937 108.71 123.92C109.6 123.12 109.51 121.7 108.45 120Z" fill="white"/>
<path d="M108.33 106.37C108.121 103.494 107.328 100.69 106 98.1302C105.008 96.1303 103.747 94.2763 102.25 92.6202C101.86 92.1802 101.53 92.0402 101.33 92.3702C101.13 92.7002 101.33 93.1702 101.71 93.6002L102.1 94.0502C104.864 97.2407 106.606 101.188 107.1 105.38C107.095 105.686 107.125 105.991 107.19 106.29C107.316 106.634 107.517 106.945 107.78 107.2C107.99 107.35 108.23 107.2 108.4 107.2C108.34 106.79 108.35 106.58 108.33 106.37Z" fill="white"/>
<path d="M99.27 98.1602C100.526 99.5414 101.289 101.3 101.44 103.16C101.506 103.443 101.61 103.716 101.75 103.97C102.36 104.47 102.66 104.3 102.66 103.67C102.446 101.285 101.46 99.0339 99.85 97.2602C99.47 96.8702 99.16 96.7502 98.98 97.0802C98.9153 97.2686 98.9083 97.4721 98.9599 97.6645C99.0116 97.8569 99.1196 98.0296 99.27 98.1602Z" fill="white"/>
</g>
<path d="M329.2 53.48L338.57 58.81V55.49C338.57 55.26 338.57 55.02 338.57 54.79C338.57 54.56 338.57 54.34 338.57 54.12V54C338.91 49.61 342.24 47.92 346.3 50.27C348.138 51.4006 349.713 52.911 350.92 54.7C351.83 48.7 356.7 46.58 362.59 49.97C369.13 53.75 374.43 62.97 374.43 70.49V77.59C374.421 78.158 374.561 78.7184 374.836 79.2151C375.112 79.7118 375.513 80.1273 376 80.42L381.52 83.65C382.711 84.3563 383.699 85.3598 384.386 86.5623C385.073 87.7648 385.436 89.1251 385.44 90.51C385.44 91.0846 385.289 91.6491 385.002 92.1466C384.714 92.6442 384.301 93.0572 383.803 93.3441C383.305 93.631 382.741 93.7817 382.166 93.781C381.591 93.7803 381.027 93.6282 380.53 93.34L329.34 63.75C327.982 62.9613 326.854 61.8311 326.068 60.4715C325.282 59.1119 324.866 57.5704 324.86 56C324.859 55.4917 324.993 54.9922 325.246 54.5515C325.499 54.1109 325.864 53.7446 326.304 53.4893C326.743 53.2341 327.242 53.0989 327.751 53.0973C328.259 53.0956 328.759 53.2276 329.2 53.48Z" fill="#E6E6E6"/>
<path d="M400.63 52.09L407.44 56V53.56C407.44 53.39 407.44 53.22 407.44 53.05C407.44 52.88 407.44 52.72 407.44 52.56V52.5C407.69 49.31 410.11 48.08 413.06 49.79C414.396 50.6085 415.541 51.7029 416.42 53C417.09 48.66 420.63 47.09 424.91 49.56C429.67 52.31 433.52 58.99 433.52 64.48V69.65C433.524 70.0552 433.632 70.4526 433.836 70.8032C434.039 71.1538 434.33 71.4456 434.68 71.65L438.68 74C439.55 74.5118 440.272 75.2428 440.772 76.12C441.272 76.9973 441.533 77.9902 441.53 79C441.529 79.4135 441.421 79.8198 441.215 80.1787C441.01 80.5376 440.715 80.8368 440.358 81.0467C440.002 81.2567 439.597 81.3702 439.184 81.376C438.77 81.3818 438.362 81.2798 438 81.08L400.73 59.56C399.742 58.9886 398.922 58.1678 398.352 57.1797C397.782 56.1915 397.481 55.0709 397.48 53.93C397.479 53.5607 397.575 53.1977 397.759 52.8773C397.943 52.5568 398.207 52.2902 398.526 52.1039C398.845 51.9176 399.207 51.8183 399.576 51.8159C399.945 51.8134 400.309 51.9079 400.63 52.09Z" fill="#E6E6E6"/>
</svg>
