<svg width="82" height="95" viewBox="0 0 82 95" fill="none" xmlns="http://www.w3.org/2000/svg">
<g filter="url(#filter0_d_15_11)">
<path d="M33.6875 24.0096C32.4198 24.0096 31.4 25.0364 31.4 26.3127C31.4 27.5889 32.4198 28.6157 33.6875 28.6157H39.187L40.7502 31.5233L31.4 39.3633L27.0823 35.0163C25.9386 33.8648 24.385 33.2218 22.7647 33.2218H13.1C11.413 33.2218 10.05 34.5941 10.05 36.2926V39.3633H19.2C27.6256 39.3633 34.45 46.2341 34.45 54.717C34.45 55.7726 34.3452 56.7994 34.145 57.7878H40.855C40.6548 56.7994 40.55 55.7726 40.55 54.717C40.55 49.7079 42.9328 45.2553 46.6214 42.4532L48.0892 45.1977C45.3537 47.4528 43.6 50.8786 43.6 54.717C43.6 61.5014 49.0614 67 55.8 67C62.5386 67 68 61.5014 68 54.717C68 47.9326 62.5386 42.4341 55.8 42.4341C54.5133 42.4341 53.2742 42.6356 52.1114 43.0098L46.8597 33.2218H52.75C54.437 33.2218 55.8 31.8496 55.8 30.1511V27.0803C55.8 25.3818 54.437 24.0096 52.75 24.0096H50.8056C50.0908 24.0096 49.4045 24.2591 48.8517 24.7197L44.3339 28.5102L42.9995 26.0152C42.3323 24.7773 41.0456 24 39.6445 24H33.6875V24.0096ZM51.1011 50.8018L53.7889 55.811C54.3894 56.9337 55.7809 57.3464 56.8866 56.7418C57.9922 56.1372 58.4116 54.7362 57.8111 53.6231L55.1233 48.6139C55.3425 48.5851 55.5713 48.5755 55.8 48.5755C59.1645 48.5755 61.9 51.3296 61.9 54.717C61.9 58.1044 59.1645 60.8585 55.8 60.8585C52.4355 60.8585 49.7 58.1044 49.7 54.717C49.7 53.2296 50.2242 51.867 51.1011 50.8018ZM24.852 57.0201C23.9466 59.2752 21.7544 60.8585 19.2 60.8585C15.8355 60.8585 13.1 58.1044 13.1 54.717C13.1 51.3296 15.8355 48.5755 19.2 48.5755C21.7639 48.5755 23.9561 50.1589 24.852 52.414H31.1808C30.1133 46.7331 25.157 42.4341 19.2 42.4341C12.4614 42.4341 7 47.9326 7 54.717C7 61.5014 12.4614 67 19.2 67C25.157 67 30.1133 62.701 31.1903 57.0201H24.852ZM19.2 57.7878C20.0089 57.7878 20.7847 57.4642 21.3567 56.8884C21.9287 56.3125 22.25 55.5314 22.25 54.717C22.25 53.9026 21.9287 53.1216 21.3567 52.5457C20.7847 51.9698 20.0089 51.6463 19.2 51.6463C18.3911 51.6463 17.6153 51.9698 17.0433 52.5457C16.4713 53.1216 16.15 53.9026 16.15 54.717C16.15 55.5314 16.4713 56.3125 17.0433 56.8884C17.6153 57.4642 18.3911 57.7878 19.2 57.7878Z" fill="white"/>
<path d="M21.6451 19V4.45455H24.7203V16.4645H30.9561V19H21.6451ZM32.9927 19V4.45455H42.7939V6.99006H36.068V10.456H42.2896V12.9915H36.068V16.4645H42.8223V19H32.9927ZM58.6053 11.7273C58.6053 13.3134 58.3046 14.6629 57.7033 15.7756C57.1067 16.8883 56.2923 17.7382 55.2601 18.3253C54.2327 18.9077 53.0774 19.1989 51.7942 19.1989C50.5016 19.1989 49.3416 18.9053 48.3141 18.3182C47.2866 17.7311 46.4746 16.8812 45.878 15.7685C45.2814 14.6558 44.9831 13.3087 44.9831 11.7273C44.9831 10.1411 45.2814 8.79167 45.878 7.67898C46.4746 6.56629 47.2866 5.71875 48.3141 5.13636C49.3416 4.54924 50.5016 4.25568 51.7942 4.25568C53.0774 4.25568 54.2327 4.54924 55.2601 5.13636C56.2923 5.71875 57.1067 6.56629 57.7033 7.67898C58.3046 8.79167 58.6053 10.1411 58.6053 11.7273ZM55.4874 11.7273C55.4874 10.6998 55.3335 9.83333 55.0257 9.12784C54.7227 8.42235 54.2942 7.88731 53.7402 7.52273C53.1863 7.15814 52.5376 6.97585 51.7942 6.97585C51.0508 6.97585 50.4022 7.15814 49.8482 7.52273C49.2942 7.88731 48.8633 8.42235 48.5556 9.12784C48.2525 9.83333 48.101 10.6998 48.101 11.7273C48.101 12.7547 48.2525 13.6212 48.5556 14.3267C48.8633 15.0322 49.2942 15.5672 49.8482 15.9318C50.4022 16.2964 51.0508 16.4787 51.7942 16.4787C52.5376 16.4787 53.1863 16.2964 53.7402 15.9318C54.2942 15.5672 54.7227 15.0322 55.0257 14.3267C55.3335 13.6212 55.4874 12.7547 55.4874 11.7273Z" fill="white"/>
<path d="M4.40092 71.4545H8.19354L12.1992 81.2273H12.3697L16.3754 71.4545H20.168V86H17.185V76.5327H17.0643L13.3001 85.929H11.2688L7.50462 76.4972H7.38388V86H4.40092V71.4545ZM36.0682 78.7273C36.0682 80.3134 35.7675 81.6629 35.1662 82.7756C34.5696 83.8883 33.7552 84.7382 32.723 85.3253C31.6955 85.9077 30.5402 86.1989 29.2571 86.1989C27.9645 86.1989 26.8045 85.9053 25.777 85.3182C24.7495 84.7311 23.9375 83.8812 23.3409 82.7685C22.7443 81.6558 22.446 80.3087 22.446 78.7273C22.446 77.1411 22.7443 75.7917 23.3409 74.679C23.9375 73.5663 24.7495 72.7187 25.777 72.1364C26.8045 71.5492 27.9645 71.2557 29.2571 71.2557C30.5402 71.2557 31.6955 71.5492 32.723 72.1364C33.7552 72.7187 34.5696 73.5663 35.1662 74.679C35.7675 75.7917 36.0682 77.1411 36.0682 78.7273ZM32.9503 78.7273C32.9503 77.6998 32.7964 76.8333 32.4886 76.1278C32.1856 75.4223 31.7571 74.8873 31.2031 74.5227C30.6491 74.1581 30.0005 73.9759 29.2571 73.9759C28.5137 73.9759 27.8651 74.1581 27.3111 74.5227C26.7571 74.8873 26.3262 75.4223 26.0185 76.1278C25.7154 76.8333 25.5639 77.6998 25.5639 78.7273C25.5639 79.7547 25.7154 80.6212 26.0185 81.3267C26.3262 82.0322 26.7571 82.5672 27.3111 82.9318C27.8651 83.2964 28.5137 83.4787 29.2571 83.4787C30.0005 83.4787 30.6491 83.2964 31.2031 82.9318C31.7571 82.5672 32.1856 82.0322 32.4886 81.3267C32.7964 80.6212 32.9503 79.7547 32.9503 78.7273ZM37.1282 73.9901V71.4545H49.0742V73.9901H44.6211V86H41.5813V73.9901H37.1282ZM63.744 78.7273C63.744 80.3134 63.4433 81.6629 62.842 82.7756C62.2454 83.8883 61.431 84.7382 60.3988 85.3253C59.3713 85.9077 58.216 86.1989 56.9329 86.1989C55.6403 86.1989 54.4802 85.9053 53.4528 85.3182C52.4253 84.7311 51.6133 83.8812 51.0167 82.7685C50.4201 81.6558 50.1218 80.3087 50.1218 78.7273C50.1218 77.1411 50.4201 75.7917 51.0167 74.679C51.6133 73.5663 52.4253 72.7187 53.4528 72.1364C54.4802 71.5492 55.6403 71.2557 56.9329 71.2557C58.216 71.2557 59.3713 71.5492 60.3988 72.1364C61.431 72.7187 62.2454 73.5663 62.842 74.679C63.4433 75.7917 63.744 77.1411 63.744 78.7273ZM60.6261 78.7273C60.6261 77.6998 60.4722 76.8333 60.1644 76.1278C59.8614 75.4223 59.4329 74.8873 58.8789 74.5227C58.3249 74.1581 57.6763 73.9759 56.9329 73.9759C56.1895 73.9759 55.5408 74.1581 54.9869 74.5227C54.4329 74.8873 54.002 75.4223 53.6942 76.1278C53.3912 76.8333 53.2397 77.6998 53.2397 78.7273C53.2397 79.7547 53.3912 80.6212 53.6942 81.3267C54.002 82.0322 54.4329 82.5672 54.9869 82.9318C55.5408 83.2964 56.1895 83.4787 56.9329 83.4787C57.6763 83.4787 58.3249 83.2964 58.8789 82.9318C59.4329 82.5672 59.8614 82.0322 60.1644 81.3267C60.4722 80.6212 60.6261 79.7547 60.6261 78.7273ZM73.9126 75.6378C73.8558 75.0649 73.612 74.6198 73.1811 74.3026C72.7502 73.9853 72.1655 73.8267 71.4268 73.8267C70.925 73.8267 70.5012 73.8977 70.1555 74.0398C69.8099 74.1771 69.5447 74.3688 69.3601 74.6151C69.1802 74.8613 69.0902 75.1406 69.0902 75.4531C69.0807 75.7135 69.1352 75.9408 69.2536 76.1349C69.3767 76.3291 69.5447 76.4972 69.7578 76.6392C69.9709 76.7765 70.2171 76.8973 70.4964 77.0014C70.7758 77.1009 71.0741 77.1861 71.3913 77.2571L72.6982 77.5696C73.3326 77.7116 73.915 77.901 74.4453 78.1378C74.9756 78.3745 75.4349 78.6657 75.8232 79.0114C76.2114 79.357 76.5121 79.7642 76.7251 80.233C76.9429 80.7017 77.0542 81.2391 77.0589 81.8452C77.0542 82.7353 76.8269 83.5071 76.3771 84.1605C75.9321 84.8092 75.2881 85.3134 74.4453 85.6733C73.6072 86.0284 72.5964 86.206 71.4126 86.206C70.2384 86.206 69.2157 86.026 68.3445 85.6662C67.478 85.3063 66.8009 84.7737 66.3132 84.0682C65.8303 83.358 65.5769 82.4796 65.5533 81.4332H68.5291C68.5623 81.9209 68.7019 82.3281 68.9482 82.6548C69.1991 82.9768 69.5329 83.2206 69.9496 83.3864C70.371 83.5473 70.8468 83.6278 71.3771 83.6278C71.898 83.6278 72.3501 83.5521 72.7337 83.4006C73.1219 83.2491 73.4226 83.0384 73.6357 82.7685C73.8487 82.4986 73.9553 82.1884 73.9553 81.8381C73.9553 81.5114 73.8582 81.2367 73.6641 81.0142C73.4747 80.7917 73.1953 80.6023 72.826 80.446C72.4614 80.2898 72.014 80.1477 71.4837 80.0199L69.8999 79.6222C68.6735 79.3239 67.7053 78.8575 66.995 78.223C66.2848 77.5885 65.9321 76.7339 65.9368 75.6591C65.9321 74.7784 66.1664 74.009 66.6399 73.3509C67.1181 72.6927 67.7739 72.179 68.6072 71.8097C69.4406 71.4403 70.3875 71.2557 71.4482 71.2557C72.5277 71.2557 73.4699 71.4403 74.2749 71.8097C75.0845 72.179 75.7143 72.6927 76.1641 73.3509C76.6139 74.009 76.8459 74.7713 76.8601 75.6378H73.9126Z" fill="white"/>
</g>
<defs>
<filter id="filter0_d_15_11" x="-1" y="0" width="83" height="99" filterUnits="userSpaceOnUse" color-interpolation-filters="sRGB">
<feFlood flood-opacity="0" result="BackgroundImageFix"/>
<feColorMatrix in="SourceAlpha" type="matrix" values="0 0 0 0 0 0 0 0 0 0 0 0 0 0 0 0 0 0 127 0" result="hardAlpha"/>
<feOffset dy="4"/>
<feGaussianBlur stdDeviation="2"/>
<feComposite in2="hardAlpha" operator="out"/>
<feColorMatrix type="matrix" values="0 0 0 0 0 0 0 0 0 0 0 0 0 0 0 0 0 0 0.25 0"/>
<feBlend mode="normal" in2="BackgroundImageFix" result="effect1_dropShadow_15_11"/>
<feBlend mode="normal" in="SourceGraphic" in2="effect1_dropShadow_15_11" result="shape"/>
</filter>
</defs>
</svg>
