<svg width="1280" height="239" viewBox="0 0 1280 239" fill="none" xmlns="http://www.w3.org/2000/svg">
<path d="M0 79.0473L26.6667 84.3458C53.3333 90.0441 106.667 100.041 160 89.7442C213.333 79.0473 266.667 47.0568 320 63.0521C373.333 79.0473 426.667 143.028 480 175.019C533.333 207.009 586.667 207.009 640 180.317C693.333 154.025 746.667 100.041 800 57.7536C853.333 15.0663 906.667 -16.9243 960 9.76783C1013.33 36.0601 1066.67 122.035 1120 159.024C1173.33 196.013 1226.67 186.016 1253.33 180.317L1280 175.019V239H1253.33C1226.67 239 1173.33 239 1120 239C1066.67 239 1013.33 239 960 239C906.667 239 853.333 239 800 239C746.667 239 693.333 239 640 239C586.667 239 533.333 239 480 239C426.667 239 373.333 239 320 239C266.667 239 213.333 239 160 239C106.667 239 53.3333 239 26.6667 239H0V79.0473Z" fill="#F30000"/>
</svg>
